<svg width="13" height="14" viewBox="0 0 13 14" fill="none" xmlns="http://www.w3.org/2000/svg">
    <path d="M10.8243 5.72524H10.1832V3.81683C10.1832 3.29002 10.0838 2.79801 9.88498 2.34079C9.68619 1.87362 9.41285 1.4661 9.06496 1.11821C8.71707 0.770323 8.30955 0.496983 7.84239 0.29819C7.38516 0.0993965 6.89315 0 6.36635 0C5.83955 0 5.34753 0.0993965 4.89031 0.29819C4.42315 0.496983 4.01562 0.770323 3.66773 1.11821C3.31984 1.4661 3.0465 1.87362 2.84771 2.34079C2.64892 2.79801 2.54952 3.29002 2.54952 3.81683V5.72524H1.90841C1.37167 5.72524 0.919418 5.90912 0.551651 6.27689C0.183884 6.64466 0 7.09691 0 7.63365V12.0916C0 12.6283 0.183884 13.0806 0.551651 13.4483C0.919418 13.8161 1.37167 14 1.90841 14H10.8243C11.361 14 11.8133 13.8161 12.181 13.4483C12.5488 13.0806 12.7327 12.6283 12.7327 12.0916V7.63365C12.7327 7.09691 12.5488 6.64466 12.181 6.27689C11.8133 5.90912 11.361 5.72524 10.8243 5.72524ZM3.81683 3.81683C3.81683 3.12105 4.0678 2.52219 4.56976 2.02023C5.07171 1.51828 5.67057 1.26731 6.36635 1.26731C7.06212 1.26731 7.66099 1.51828 8.16294 2.02023C8.66489 2.52219 8.91587 3.12105 8.91587 3.81683V5.72524H3.81683V3.81683ZM11.4505 12.0916C11.4505 12.2804 11.3933 12.432 11.279 12.5463C11.1647 12.6606 11.0131 12.7178 10.8243 12.7178H1.90841C1.71956 12.7178 1.56798 12.6606 1.45367 12.5463C1.33937 12.432 1.28222 12.2804 1.28222 12.0916V7.63365C1.28222 7.4448 1.33937 7.29073 1.45367 7.17146C1.56798 7.05218 1.71956 6.99255 1.90841 6.99255H10.8243C11.0131 6.99255 11.1647 7.05218 11.279 7.17146C11.3933 7.29073 11.4505 7.4448 11.4505 7.63365V12.0916Z"
          fill="#495057"/>
</svg>
