<svg width="258" height="50" viewBox="0 0 258 50" fill="none" xmlns="http://www.w3.org/2000/svg">
    <g clip-path="url(#clip0_198_4901)">
        <path d="M24.2198 32.4176C21.9585 35.8791 18.0899 38.0495 13.8399 38.0495C9.5898 38.0495 7.49202 36.8407 5.06731 34.3681C2.61536 31.8956 1.41663 28.9011 1.41663 25.4396C1.41663 21.978 2.61536 18.9835 5.01282 16.511C7.46478 14.0385 10.3799 12.8022 13.8126 12.8022C17.2453 12.8022 21.9585 14.9725 24.2198 18.4341C20.9233 20.7418 19.2886 21.8956 19.2886 21.8956C18.1444 20 16.0739 18.7912 13.8126 18.7912C11.5514 18.7912 10.4889 19.4231 9.23563 20.7418C8.00966 22.033 7.3558 23.5989 7.3558 25.4121C7.3558 27.2253 7.98241 28.7912 9.23563 30.0824C10.4616 31.3736 11.9873 32.0055 13.8126 32.0055C15.638 32.0055 18.1716 30.8242 19.3431 28.9286L24.1926 32.3626L24.2198 32.4176Z"
              fill="white"/>
        <path d="M43.2633 37.7198H28.4971V13.1319H34.4907V32.5H43.2633V37.7198Z" fill="white"/>
        <path d="M47.5133 37.7198V13.1319H53.4252V37.7198H47.5133Z" fill="white"/>
        <path d="M80.9416 32.4176C78.6804 35.8791 74.8117 38.0495 70.5617 38.0495C66.3116 38.0495 64.2138 36.8407 61.7891 34.3681C59.3372 31.8956 58.1384 28.9011 58.1384 25.4396C58.1384 21.978 59.3372 18.9835 61.7346 16.511C64.1866 14.0385 67.1017 12.8022 70.5344 12.8022C73.9671 12.8022 78.6804 14.9725 80.9416 18.4341C77.6451 20.7418 76.0104 21.8956 76.0104 21.8956C74.8662 20 72.7957 18.7912 70.5344 18.7912C68.2732 18.7912 67.2107 19.4231 65.9574 20.7418C64.7315 22.033 64.0776 23.5989 64.0776 25.4121C64.0776 27.2253 64.7042 28.7912 65.9574 30.0824C67.1834 31.3736 68.7091 32.0055 70.5344 32.0055C72.3598 32.0055 74.8934 30.8242 76.0649 28.9286L80.9144 32.3626L80.9416 32.4176Z"
              fill="white"/>
        <path d="M94.2639 25.2747L105.652 37.7198H97.5605L91.1854 30.2198V37.7198H85.2734V13.1319H91.1854V20.1648L96.0348 13.1319H103.418L94.2639 25.2747Z"
              fill="white"/>
        <path d="M258 50.2747L123.415 38.1593V12.5275L258 0V50.2747Z" fill="#FF5101"/>
        <path d="M110.692 33.6264C109.548 33.6264 108.54 33.4341 107.641 33.0495C106.742 32.6648 106.06 32.1429 105.543 31.456C105.025 30.7692 104.78 29.9725 104.78 29.0659C104.78 28.1593 104.943 27.6374 105.27 26.978C105.597 26.3462 106.142 25.7143 106.878 25.0824C107.641 24.4506 108.621 23.7637 109.902 23.0495C111.019 22.4176 111.891 21.8407 112.517 21.3736C113.144 20.9066 113.607 20.4396 113.852 20.0275C114.125 19.5879 114.234 19.1209 114.234 18.6264C114.234 17.8846 113.988 17.2802 113.498 16.8132C113.008 16.3736 112.299 16.1264 111.4 16.1264C110.501 16.1264 109.684 16.3736 109.139 16.8681C108.594 17.3626 108.322 18.022 108.322 18.8462C108.322 19.6703 108.376 19.5879 108.512 19.9451C108.621 20.3022 108.867 20.6868 109.166 21.0989C109.493 21.5385 109.929 22.0604 110.501 22.6923L120.118 32.9121L119.328 33.7637L109.439 23.2692C108.839 22.6374 108.349 22.0604 108.022 21.5659C107.668 21.0714 107.45 20.6319 107.314 20.1923C107.177 19.7528 107.123 19.3132 107.123 18.8462C107.123 18.1044 107.286 17.4451 107.641 16.8956C107.995 16.3462 108.485 15.9066 109.139 15.5769C109.793 15.2473 110.528 15.1099 111.4 15.1099C112.272 15.1099 112.926 15.2473 113.498 15.522C114.097 15.7967 114.561 16.2088 114.888 16.7033C115.214 17.2253 115.378 17.8297 115.378 18.5714C115.378 19.3132 115.214 19.8077 114.915 20.3571C114.615 20.9066 114.097 21.456 113.389 22.0055C112.681 22.5549 111.727 23.1868 110.501 23.8736C109.357 24.533 108.458 25.1374 107.804 25.6868C107.15 26.2363 106.687 26.7582 106.415 27.2802C106.142 27.8022 106.006 28.3517 106.006 28.956C106.006 29.5604 106.197 30.3022 106.605 30.8242C107.014 31.3736 107.559 31.7857 108.24 32.0879C108.948 32.3901 109.766 32.5275 110.692 32.5275C111.618 32.5275 113.035 32.2802 114.016 31.7582C114.969 31.2363 115.787 30.467 116.44 29.4231C117.094 28.3791 117.557 27.0604 117.857 25.467L118.92 25.7967C118.593 27.5275 118.048 28.956 117.285 30.1099C116.522 31.2637 115.596 32.1429 114.452 32.7198C113.335 33.2967 112.054 33.5989 110.61 33.5989L110.692 33.6264Z"
              fill="white"/>
        <path d="M137.854 37.7198H131.888V13.1319H142.05C144.774 13.1319 146.845 13.956 148.289 15.5494C149.76 17.1429 150.468 19.0934 150.468 21.3187C150.468 23.544 149.978 24.8626 148.943 26.3187C147.934 27.7747 146.491 28.7363 144.583 29.2033L150.577 37.6923H143.657L138.372 29.478H137.827V37.6923L137.854 37.7198ZM137.854 18.3516V24.3956H141.777C145.346 24.5604 145.346 18.1593 141.777 18.3516H137.854Z"
              fill="white"/>
        <path d="M171.773 37.7198H155.481V13.1319H171.446V18.3516H161.447V23.0494H170.22V28.1593H161.447V32.5H171.773V37.7198Z"
              fill="white"/>
        <path d="M181.472 18.3516H175.124V13.1319H193.786V18.3516H187.438V37.7198H181.472V18.3516Z" fill="white"/>
        <path d="M198.172 37.7198V13.1319H204.139V37.7198H198.172Z" fill="white"/>
        <path d="M216.289 37.7198H210.323V13.1319H220.485C223.209 13.1319 225.28 13.956 226.724 15.5494C228.195 17.1429 228.903 19.0934 228.903 21.3187C228.903 23.544 228.413 24.8626 227.378 26.3187C226.37 27.7747 224.926 28.7363 223.019 29.2033L229.012 37.6923H222.092L216.807 29.478H216.262V37.6923L216.289 37.7198ZM216.289 18.3516V24.3956H220.213C223.782 24.5604 223.782 18.1593 220.213 18.3516H216.289Z"
              fill="white"/>
        <path d="M250.208 37.7198H233.916V13.1319H249.881V18.3516H239.883V23.0494H248.655V28.1593H239.883V32.5H250.208V37.7198Z"
              fill="white"/>
    </g>
    <defs>
        <clipPath id="clip0_198_4901">
            <rect width="258" height="50" fill="white"/>
        </clipPath>
    </defs>
</svg>
