<svg width="12" height="13" viewBox="0 0 12 13" fill="none" xmlns="http://www.w3.org/2000/svg">
    <path d="M8.45838 7.80305H3.24619C2.79914 7.80305 2.37749 7.88433 1.98124 8.04689C1.58499 8.21962 1.23955 8.45076 0.9449 8.74033C0.650254 9.02989 0.421649 9.3728 0.259086 9.76905C0.0863619 10.1653 0 10.592 0 11.0492V12.3447C0 12.5479 0.0584213 12.7079 0.175264 12.8247C0.292106 12.9416 0.45213 13 0.655334 13C0.848378 13 1.00332 12.9416 1.12016 12.8247C1.23701 12.7079 1.29543 12.5479 1.29543 12.3447V11.0492C1.29543 10.5006 1.48339 10.0383 1.85932 9.66237C2.23525 9.28644 2.69754 9.09848 3.24619 9.09848H8.45838C9.00703 9.09848 9.46932 9.28644 9.84525 9.66237C10.2212 10.0383 10.4091 10.5006 10.4091 11.0492V12.3447C10.4091 12.5479 10.4676 12.7079 10.5844 12.8247C10.7013 12.9416 10.8562 13 11.0492 13C11.2524 13 11.4125 12.9416 11.5293 12.8247C11.6462 12.7079 11.7046 12.5479 11.7046 12.3447V11.0492C11.7046 10.592 11.6182 10.1653 11.4455 9.76905C11.2829 9.3728 11.0543 9.02989 10.7597 8.74033C10.465 8.45076 10.1196 8.21962 9.72333 8.04689C9.32708 7.88433 8.90543 7.80305 8.45838 7.80305ZM5.85229 6.49238C6.3095 6.49238 6.73623 6.4111 7.13247 6.24853C7.52872 6.07581 7.87163 5.84467 8.1612 5.5551C8.45076 5.26553 8.68191 4.92263 8.85463 4.52638C9.01719 4.13013 9.09848 3.7034 9.09848 3.24619C9.09848 2.78898 9.01719 2.36225 8.85463 1.966C8.68191 1.56975 8.45076 1.22685 8.1612 0.93728C7.87163 0.647714 7.52872 0.416569 7.13247 0.243845C6.73623 0.0812818 6.3095 0 5.85229 0C5.39508 0 4.96835 0.0812818 4.5721 0.243845C4.17585 0.416569 3.83294 0.647714 3.54338 0.93728C3.25381 1.22685 3.02267 1.56975 2.84994 1.966C2.68738 2.36225 2.6061 2.78898 2.6061 3.24619C2.6061 3.7034 2.68738 4.13013 2.84994 4.52638C3.02267 4.92263 3.25381 5.26553 3.54338 5.5551C3.83294 5.84467 4.17585 6.07581 4.5721 6.24853C4.96835 6.4111 5.39508 6.49238 5.85229 6.49238ZM5.85229 1.29543C6.40094 1.29543 6.86323 1.48339 7.23916 1.85932C7.61508 2.23525 7.80305 2.69754 7.80305 3.24619C7.80305 3.79484 7.61508 4.25713 7.23916 4.63306C6.86323 5.00899 6.40094 5.19695 5.85229 5.19695C5.30363 5.19695 4.84134 5.00899 4.46542 4.63306C4.08949 4.25713 3.90152 3.79484 3.90152 3.24619C3.90152 2.69754 4.08949 2.23525 4.46542 1.85932C4.84134 1.48339 5.30363 1.29543 5.85229 1.29543Z"
          fill="#495057"/>
</svg>
