<svg width="30" height="30" viewBox="0 0 30 30" fill="none" xmlns="http://www.w3.org/2000/svg">
<path d="M15 10.9375C14.1375 10.9375 13.4375 11.6375 13.4375 12.5V12.6338C13.4375 12.8824 13.3387 13.1208 13.1629 13.2967C12.9871 13.4725 12.7486 13.5713 12.5 13.5713C12.2514 13.5713 12.0129 13.4725 11.8371 13.2967C11.6613 13.1208 11.5625 12.8824 11.5625 12.6338V12.5C11.5625 11.5883 11.9247 10.714 12.5693 10.0693C13.214 9.42466 14.0883 9.0625 15 9.0625H15.145C15.8175 9.06281 16.4737 9.26902 17.0255 9.6534C17.5773 10.0378 17.9981 10.5819 18.2314 11.2126C18.4648 11.8433 18.4994 12.5303 18.3306 13.1812C18.1619 13.8322 17.7978 14.4159 17.2875 14.8538L16.325 15.6788C16.2042 15.7836 16.1072 15.9129 16.0404 16.0582C15.9736 16.2035 15.9385 16.3613 15.9375 16.5212V17.1875C15.9375 17.4361 15.8387 17.6746 15.6629 17.8504C15.4871 18.0262 15.2486 18.125 15 18.125C14.7514 18.125 14.5129 18.0262 14.3371 17.8504C14.1613 17.6746 14.0625 17.4361 14.0625 17.1875V16.5212C14.0625 15.65 14.4425 14.8225 15.1038 14.2562L16.0675 13.4312C16.2874 13.2428 16.4443 12.9914 16.5171 12.7111C16.5898 12.4307 16.5749 12.1348 16.4745 11.8632C16.374 11.5916 16.1927 11.3572 15.955 11.1917C15.7173 11.0262 15.4346 10.9375 15.145 10.9375H15ZM15 21.25C15.3315 21.25 15.6495 21.1183 15.8839 20.8839C16.1183 20.6495 16.25 20.3315 16.25 20C16.25 19.6685 16.1183 19.3505 15.8839 19.1161C15.6495 18.8817 15.3315 18.75 15 18.75C14.6685 18.75 14.3505 18.8817 14.1161 19.1161C13.8817 19.3505 13.75 19.6685 13.75 20C13.75 20.3315 13.8817 20.6495 14.1161 20.8839C14.3505 21.1183 14.6685 21.25 15 21.25Z" fill="white"/>
<path d="M4.0625 15C4.0625 12.0992 5.21484 9.3172 7.26602 7.26602C9.3172 5.21484 12.0992 4.0625 15 4.0625C17.9008 4.0625 20.6828 5.21484 22.734 7.26602C24.7852 9.3172 25.9375 12.0992 25.9375 15C25.9375 17.9008 24.7852 20.6828 22.734 22.734C20.6828 24.7852 17.9008 25.9375 15 25.9375C12.0992 25.9375 9.3172 24.7852 7.26602 22.734C5.21484 20.6828 4.0625 17.9008 4.0625 15ZM15 5.9375C13.8099 5.9375 12.6314 6.17191 11.5319 6.62734C10.4324 7.08277 9.43337 7.75031 8.59184 8.59184C7.75031 9.43338 7.08277 10.4324 6.62734 11.5319C6.17191 12.6314 5.9375 13.8099 5.9375 15C5.9375 16.1901 6.17191 17.3686 6.62734 18.4681C7.08277 19.5676 7.75031 20.5666 8.59184 21.4082C9.43337 22.2497 10.4324 22.9172 11.5319 23.3727C12.6314 23.8281 13.8099 24.0625 15 24.0625C17.4035 24.0625 19.7086 23.1077 21.4082 21.4082C23.1077 19.7086 24.0625 17.4035 24.0625 15C24.0625 12.5965 23.1077 10.2914 21.4082 8.59184C19.7086 6.8923 17.4035 5.9375 15 5.9375Z" fill="white"/>
</svg>
